<?xml version="1.0" encoding="utf-8"?>
<!-- Generator: Adobe Illustrator 16.0.0, SVG Export Plug-In . SVG Version: 6.00 Build 0)  -->
<!DOCTYPE svg PUBLIC "-//W3C//DTD SVG 1.1//EN" "http://www.w3.org/Graphics/SVG/1.1/DTD/svg11.dtd">
<svg version="1.1" id="Ebene_1" xmlns="http://www.w3.org/2000/svg" xmlns:xlink="http://www.w3.org/1999/xlink" x="0px" y="0px"
	 width="50px" height="50px" viewBox="0 0 50 50" enable-background="new 0 0 50 50" xml:space="preserve">
<path fill="#000000" d="M24.991,0C11.189,0,0,11.189,0,24.992c0,13.802,11.189,24.992,24.991,24.992
	c13.803,0,24.992-11.189,24.992-24.992C49.983,11.189,38.794,0,24.991,0z M37.259,13.716c1.133,0,2.052,0.918,2.052,2.051
	c0,1.133-0.919,2.052-2.052,2.052c-1.134,0-2.052-0.918-2.052-2.052C35.207,14.634,36.125,13.716,37.259,13.716z M12.259,13.716
	c1.133,0,2.051,0.918,2.051,2.051c0,1.133-0.918,2.052-2.051,2.052c-1.133,0-2.052-0.918-2.052-2.052
	C10.207,14.634,11.125,13.716,12.259,13.716z M42.541,31.449c-2.633,7.15-9.486,12.26-17.55,12.26
	c-7.236,0-13.497-4.114-16.608-10.127c-0.178-0.344-0.851-1.951,0.222-2.526c1.455-0.78,1.903,0.394,1.903,0.394
	c2.475,5.541,8.022,9.408,14.483,9.408c6.461,0,12.009-3.867,14.483-9.408c0,0,0.729-1.9,2.027-1.537
	C42.903,30.304,42.541,31.449,42.541,31.449z"/>
</svg>
