<?xml version="1.0" encoding="utf-8"?>
<!-- Generator: Adobe Illustrator 16.0.0, SVG Export Plug-In . SVG Version: 6.00 Build 0)  -->
<!DOCTYPE svg PUBLIC "-//W3C//DTD SVG 1.1//EN" "http://www.w3.org/Graphics/SVG/1.1/DTD/svg11.dtd">
<svg version="1.1" id="Ebene_1" xmlns="http://www.w3.org/2000/svg" xmlns:xlink="http://www.w3.org/1999/xlink" x="0px" y="0px"
	 width="50px" height="50px" viewBox="0 0 50 50" enable-background="new 0 0 50 50" xml:space="preserve">
<path fill="#000000" d="M24.991,0C11.189,0,0,11.189,0,24.992c0,13.802,11.189,24.992,24.991,24.992
	c13.803,0,24.992-11.189,24.992-24.992C49.983,11.189,38.794,0,24.991,0z M37.259,13.716c1.133,0,2.052,0.918,2.052,2.051
	c0,1.133-0.919,2.052-2.052,2.052c-1.134,0-2.052-0.918-2.052-2.052C35.207,14.634,36.125,13.716,37.259,13.716z M12.259,13.716
	c1.133,0,2.051,0.918,2.051,2.051c0,1.133-0.918,2.052-2.051,2.052c-1.133,0-2.052-0.918-2.052-2.052
	C10.207,14.634,11.125,13.716,12.259,13.716z M42.283,35.161H7.909c-0.739,0-1.339-0.71-1.339-1.587s0.6-1.587,1.339-1.587h34.374
	c0.741,0,1.341,0.71,1.341,1.587S43.024,35.161,42.283,35.161z"/>
</svg>
