<?xml version="1.0" encoding="utf-8"?>
<!-- Generator: Adobe Illustrator 16.0.0, SVG Export Plug-In . SVG Version: 6.00 Build 0)  -->
<!DOCTYPE svg PUBLIC "-//W3C//DTD SVG 1.1//EN" "http://www.w3.org/Graphics/SVG/1.1/DTD/svg11.dtd">
<svg version="1.1" id="Ebene_1" xmlns="http://www.w3.org/2000/svg" xmlns:xlink="http://www.w3.org/1999/xlink" x="0px" y="0px"
	 width="50px" height="50px" viewBox="0 0 50 50" enable-background="new 0 0 50 50" xml:space="preserve">
<path fill="#000000" d="M24.991,0C11.189,0,0,11.189,0,24.992c0,13.802,11.189,24.992,24.991,24.992
	c13.803,0,24.992-11.189,24.992-24.992C49.983,11.189,38.794,0,24.991,0z M37.259,13.716c1.133,0,2.052,0.918,2.052,2.051
	c0,1.133-0.919,2.052-2.052,2.052c-1.134,0-2.052-0.918-2.052-2.052C35.207,14.634,36.125,13.716,37.259,13.716z M12.259,13.716
	c1.133,0,2.051,0.918,2.051,2.051c0,1.133-0.918,2.052-2.051,2.052c-1.133,0-2.052-0.918-2.052-2.052
	C10.207,14.634,11.125,13.716,12.259,13.716z M41.502,38.662c-1.299,0.363-2.027-1.537-2.027-1.537
	c-2.475-5.541-8.022-9.408-14.483-9.408c-6.46,0-12.008,3.867-14.483,9.408c0,0-0.641,1.02-1.903,0.394
	c-1.091-0.541-0.4-2.183-0.222-2.526c3.111-6.013,9.372-10.127,16.608-10.127c8.063,0,14.917,5.109,17.55,12.26
	C42.541,37.125,42.903,38.271,41.502,38.662z"/>
</svg>
